<svg xmlns="http://www.w3.org/2000/svg" viewBox="0 0 137.16 137.16"><defs><style>.cls-1{fill:#2d2a26;}.cls-2{fill:#ffc629;}.cls-3{fill:#fff;}</style></defs><g id="Layer_2" data-name="Layer 2"><g id="Layer_2-2" data-name="Layer 2"><circle class="cls-1" cx="68.58" cy="68.58" r="68.58"/><circle class="cls-2" cx="35.7" cy="89.05" r="4.62"/><path class="cls-3" d="M101.4,45.06a20.89,20.89,0,0,0-14.65-5.84c-13.16,0-16.92,9-17.26,9.89-.34-.87-4.1-9.89-17.27-9.89a20.89,20.89,0,0,0-14.65,5.84q-5.73,5.84-5.72,15.57V76a2.67,2.67,0,0,0,1.08,2.06,4.07,4.07,0,0,0,2.7.92,3.86,3.86,0,0,0,2.57-.92,2.64,2.64,0,0,0,1.09-2V60.71q0-6.74,4-10.62a12.6,12.6,0,0,1,9.1-3.88,13,13,0,0,1,9.33,3.94,13.44,13.44,0,0,1,4.07,10.1v31q0,2.82,3.72,2.84h.05c2.48,0,3.73-1,3.73-2.84v-31a13.43,13.43,0,0,1,4.06-10.1,13,13,0,0,1,9.33-3.94,12.62,12.62,0,0,1,9.11,3.88q3.95,3.88,4,10.62V76.05a2.65,2.65,0,0,0,1.08,2,3.9,3.9,0,0,0,2.58.92A4,4,0,0,0,106,78.1,2.69,2.69,0,0,0,107.13,76V60.63Q107.13,50.9,101.4,45.06Z"/></g></g></svg>