<svg xmlns="http://www.w3.org/2000/svg" viewBox="0 0 234.38 35.16"><defs><style>.cls-1{fill:#2d2a26;}.cls-2{fill:#ffc629;}</style></defs><g id="Layer_2" data-name="Layer 2"><g id="Layer_2-2" data-name="Layer 2"><path class="cls-1" d="M49,29.13c0-2.39.91-4.06,2.72-5s4.45-1.4,7.92-1.4h2.33V21.66a7.09,7.09,0,0,0-1.32-4.28,4.71,4.71,0,0,0-4.07-1.81,8.21,8.21,0,0,0-3.31.65c-1,.43-1.51.65-1.57.65a1,1,0,0,1-.87-.49,1.92,1.92,0,0,1-.32-1.08c0-.58.65-1.11,2-1.6a11.89,11.89,0,0,1,4.2-.73c2.86,0,5,.83,6.28,2.49a9.83,9.83,0,0,1,2,6.32V33.65a1.07,1.07,0,0,1-.41.85,1.65,1.65,0,0,1-1,.34,1.49,1.49,0,0,1-1-.34,1.08,1.08,0,0,1-.38-.85v-2a9,9,0,0,1-6.9,3.52,6.5,6.5,0,0,1-4.47-1.53A5.67,5.67,0,0,1,49,29.13Zm3-.27A3.53,3.53,0,0,0,53,31.71a4.32,4.32,0,0,0,2.88.94A6.4,6.4,0,0,0,60,31.05a4.37,4.37,0,0,0,1.94-3.2V24.93H60a29.34,29.34,0,0,0-3.08.14,14.27,14.27,0,0,0-2.49.5,3.52,3.52,0,0,0-1.87,1.19A3.27,3.27,0,0,0,51.93,28.86Z"/><path class="cls-1" d="M86,33.65V1.1a.93.93,0,0,1,.41-.78,1.66,1.66,0,0,1,1-.32,1.79,1.79,0,0,1,1.07.32A.93.93,0,0,1,89,1.1V23.33l11.15-9.91a1.55,1.55,0,0,1,.68-.27,1.5,1.5,0,0,1,1,.43,1.31,1.31,0,0,1,.48,1,1,1,0,0,1-.32.82l-6.71,5.89,7.89,11.55a1.39,1.39,0,0,1,.19.64,1.45,1.45,0,0,1-.5,1,1.54,1.54,0,0,1-1.1.51,1.07,1.07,0,0,1-.91-.55L93.2,23.15,89,26.85v6.8a1,1,0,0,1-.43.82,1.58,1.58,0,0,1-1.07.37,1.52,1.52,0,0,1-1-.37A1,1,0,0,1,86,33.65Z"/><path class="cls-1" d="M120.92,29.13c0-2.39.91-4.06,2.72-5s4.45-1.4,7.92-1.4h2.33V21.66a7,7,0,0,0-1.33-4.28,4.68,4.68,0,0,0-4.06-1.81,8.21,8.21,0,0,0-3.31.65c-1,.43-1.52.65-1.58.65a1,1,0,0,1-.86-.49,1.92,1.92,0,0,1-.32-1.08c0-.58.65-1.11,2-1.6a11.89,11.89,0,0,1,4.2-.73c2.86,0,5,.83,6.28,2.49a9.83,9.83,0,0,1,2,6.32V33.65a1,1,0,0,1-.41.85,1.61,1.61,0,0,1-1.05.34,1.48,1.48,0,0,1-1-.34,1.09,1.09,0,0,1-.39-.85v-2a9,9,0,0,1-6.89,3.52,6.53,6.53,0,0,1-4.48-1.53A5.7,5.7,0,0,1,120.92,29.13Zm3-.27A3.53,3.53,0,0,0,125,31.71a4.3,4.3,0,0,0,2.88.94,6.4,6.4,0,0,0,4.09-1.6,4.37,4.37,0,0,0,1.94-3.2V24.93H132a29.21,29.21,0,0,0-3.08.14,14.27,14.27,0,0,0-2.49.5,3.52,3.52,0,0,0-1.87,1.19A3.27,3.27,0,0,0,123.89,28.86Z"/><path class="cls-1" d="M158,33.65V14.34a.94.94,0,0,1,.42-.78,1.66,1.66,0,0,1,1.05-.32,1.79,1.79,0,0,1,1.07.32.93.93,0,0,1,.43.78V33.65a1,1,0,0,1-.45.82,1.62,1.62,0,0,1-1,.37,1.52,1.52,0,0,1-1-.37A1.05,1.05,0,0,1,158,33.65Z"/><path class="cls-1" d="M182.28,33.65V1.14a.94.94,0,0,1,.42-.77A1.61,1.61,0,0,1,183.75,0a1.73,1.73,0,0,1,1.07.33.93.93,0,0,1,.43.77V16.48A6.75,6.75,0,0,1,191.33,13a7.67,7.67,0,0,1,5.77,2.51,8.4,8.4,0,0,1,2.4,6v5a8.64,8.64,0,0,1-2.44,6.05,7.51,7.51,0,0,1-5.64,2.63,7.25,7.25,0,0,1-3.79-1,6.14,6.14,0,0,1-2.47-2.52v2a1.13,1.13,0,0,1-.41.83,1.42,1.42,0,0,1-1,.37,1.52,1.52,0,0,1-1-.37A1.05,1.05,0,0,1,182.28,33.65Zm3-5.77A4.43,4.43,0,0,0,187,30.74a5.52,5.52,0,0,0,3.91,1.63,5.26,5.26,0,0,0,4-1.81,5.85,5.85,0,0,0,1.69-4.09V21.52a5.66,5.66,0,0,0-1.69-4,5.37,5.37,0,0,0-4-1.77,5.6,5.6,0,0,0-5.57,5.77Z"/><path class="cls-1" d="M218.45,29.13c0-2.39.9-4.06,2.71-5s4.46-1.4,7.93-1.4h2.32V21.66a7.09,7.09,0,0,0-1.32-4.28A4.69,4.69,0,0,0,226,15.57a8.18,8.18,0,0,0-3.31.65c-1,.43-1.52.65-1.58.65a1,1,0,0,1-.87-.49A2,2,0,0,1,220,15.3c0-.58.66-1.11,2-1.6a11.85,11.85,0,0,1,4.2-.73q4.29,0,6.28,2.49a9.83,9.83,0,0,1,2,6.32V33.65a1,1,0,0,1-.41.85,1.61,1.61,0,0,1-1.05.34,1.46,1.46,0,0,1-1-.34,1.09,1.09,0,0,1-.39-.85v-2a9,9,0,0,1-6.89,3.52,6.53,6.53,0,0,1-4.48-1.53A5.67,5.67,0,0,1,218.45,29.13Zm3-.27a3.54,3.54,0,0,0,1.1,2.85,4.3,4.3,0,0,0,2.88.94,6.35,6.35,0,0,0,4.08-1.6,4.34,4.34,0,0,0,1.94-3.2V24.93H229.5a29.55,29.55,0,0,0-3.09.14,14.34,14.34,0,0,0-2.48.5,3.55,3.55,0,0,0-1.88,1.19A3.33,3.33,0,0,0,221.41,28.86Z"/><path class="cls-1" d="M157.42,7.27a.84.84,0,0,1,.51-.83L163,3.66a.5.5,0,0,1,.37-.14.93.93,0,0,1,.79.39,1.43,1.43,0,0,1,.3.89,1,1,0,0,1-.55,1l-4.88,2.61a.76.76,0,0,1-.46.14,1.1,1.1,0,0,1-.82-.39A1.29,1.29,0,0,1,157.42,7.27Z"/><circle class="cls-2" cx="1.84" cy="32.84" r="1.84"/><path class="cls-1" d="M28.05,15.3A8.32,8.32,0,0,0,22.2,13c-5.25,0-6.75,3.6-6.88,3.94C15.18,16.57,13.68,13,8.43,13A8.28,8.28,0,0,0,2.59,15.3,8.49,8.49,0,0,0,.3,21.51v6.14a1.05,1.05,0,0,0,.44.82,1.58,1.58,0,0,0,1.07.37,1.52,1.52,0,0,0,1-.37,1,1,0,0,0,.43-.82V21.54A5.68,5.68,0,0,1,4.85,17.3a5,5,0,0,1,3.63-1.55,5.22,5.22,0,0,1,3.72,1.57,5.39,5.39,0,0,1,1.62,4V33.7c0,.75.5,1.13,1.49,1.14h0c1,0,1.48-.39,1.48-1.14V21.36a5.39,5.39,0,0,1,1.62-4,5.24,5.24,0,0,1,3.73-1.57,5.07,5.07,0,0,1,3.63,1.55,5.67,5.67,0,0,1,1.57,4.24v6.11a1.07,1.07,0,0,0,.43.82,1.53,1.53,0,0,0,1,.37,1.57,1.57,0,0,0,1.07-.37,1.05,1.05,0,0,0,.44-.82V21.51A8.49,8.49,0,0,0,28.05,15.3Z"/></g></g></svg>